<svg xmlns="http://www.w3.org/2000/svg" version="1.0" width="410" height="160" viewBox="-0.52 -0.464 511 330"><path d="M236.544 9.848c-16.3 0-32.091 5.557-45.131 15.702L97.337 97.995l-232.408 33.127c-15.834 2.536-26.065 18.328-21.253 34.02l23.754 79.466h46.381c-4.634 45.014 26.185 74.615 65.51 74.615 39.324 0 70.523-33.487 65.509-74.615h380.366c-5.538 44.882 27.042 74.615 65.51 74.615 38.466 0 70.518-33.52 65.508-74.615h94.826c8.849 0 16.44-7.626 16.44-16.978v-89.87c0-8.56-6.18-15.677-14.252-16.787l-161.46-22.978-63.947-65.36c-13.971-14.583-33.077-22.47-53.257-22.786h-138.02zm67.885 27.574h74.198c11.022 0 21.107 5.84 27.316 15.191l18.315 28.212c4.532 7.898-.403 15.584-8.876 16.979H304.429V37.422zm-79.824.128h58.82v60.254H132.593l67.51-51.829c6.985-5.39 15.81-8.425 24.503-8.425z"/></svg>